<svg xmlns="http://www.w3.org/2000/svg" viewBox="0 0 92.65 92.65"><defs><style>.a{fill:#e0bf0e;}</style></defs><path class="a" d="M46.32,92.65h.31a45.83,45.83,0,0,0,32.64-13.8,46.3,46.3,0,1,0-32.95,13.8ZM20.8,50.23a5.05,5.05,0,0,1,2.16.42l7.41-8.44a6.54,6.54,0,0,1-.31-2.06,6.59,6.59,0,0,1,13.18,0A6,6,0,0,1,42.93,42l6.89,7.72a5.76,5.76,0,0,1,1.86-.31,5.51,5.51,0,0,1,2.26.41L65,36.23a6,6,0,0,1-.41-2.36,6.59,6.59,0,1,1,6.58,6.59,9.42,9.42,0,0,1-1.75-.21l-11.32,14A9.22,9.22,0,0,1,58.27,56a6.59,6.59,0,0,1-13.18,0,5.58,5.58,0,0,1,.41-2.27l-6.59-7.51a7.87,7.87,0,0,1-2.26.41,7,7,0,0,1-2.06-.31l-7.52,8.55a5.82,5.82,0,0,1,.31,2,6.59,6.59,0,1,1-13.17,0A6.51,6.51,0,0,1,20.8,50.23Z" transform="translate(0 0)"/></svg>
